<svg width="335" height="284" viewBox="0 0 335 284" fill="none" xmlns="http://www.w3.org/2000/svg">
<g clip-path="url(#clip0_42_3021)">
<path d="M93.5002 12.9893C100.307 12.7699 139.688 12.1595 143.882 13.6094C144.752 15.724 144.349 50.467 144.378 55.2695C152.653 55.3407 163.634 55.008 171.675 55.5045C171.77 48.4412 174.501 41.5253 178.41 35.7194C186.574 23.5892 200.493 17.429 214.451 14.7868C218.605 14.0199 222.795 13.4763 227.003 13.1583C232.146 12.812 266.417 12.2471 268.672 13.7898C269.136 17.414 269.191 49.8789 268.443 51.2174C268.043 51.93 266.572 51.9889 265.861 52.035C262.703 52.2401 259.404 51.9611 256.23 51.9392C246.882 51.8742 237.227 51.8171 227.992 53.4773C209.425 56.8153 193.522 67.0463 182.265 82.0762C179.283 86.0584 177.009 90.3907 174.193 94.4593C164.25 94.2966 154.305 94.2777 144.362 94.4025L144.307 116.566C144.292 124.876 143.797 132.913 146.861 140.818C151.453 152.669 160.798 157.827 172.557 160.497C172.737 134.598 169.594 120.163 184.715 96.9257C188.109 92.1192 192.164 87.8169 196.76 84.1456C213.237 70.8293 230.296 69.2496 250.548 69.7416C256.361 69.8829 262.968 69.3873 268.715 69.9757C269.285 78.3244 268.635 87.2901 268.87 95.6962C268.992 100.053 268.91 104.881 268.73 109.233C266.917 109.367 265.193 109.327 263.377 109.342C250.764 109.444 238.084 109.15 225.474 109.453C225.429 117.801 226.1 183.449 224.919 185.445C222.578 186.092 220.643 186.092 218.257 186.104L179.671 186.089C176.283 186.089 172.334 185.927 169.011 186.083C137.853 187.535 99.763 179.445 92.9186 143.51C91.3326 135.182 91.6051 127.657 91.5984 118.961L91.609 94.3488C83.1969 94.2722 72.9292 94.6903 64.7118 94.2591C64.3663 89.9519 64.6739 81.0853 64.6114 76.5937C64.558 72.7851 64.3031 58.8972 65.0328 55.7749C67.2115 54.8679 87.8786 55.4432 91.7122 55.5103C91.4623 47.4131 91.8062 38.6237 91.6505 30.4203C91.5868 27.0628 91.4339 16.5803 91.9051 13.9552C92.6759 13.075 92.224 13.4547 93.5002 12.9893Z" fill="url(#paint0_linear_42_3021)"/>
<path d="M264.799 214.559C268.146 214.705 271.733 214.644 275.102 214.647C275.163 216.857 275.193 219.121 275.169 221.33C274.974 238.121 275.626 255.153 275.102 271.926L265.559 271.944C265.449 270.33 265.251 268.544 265.102 266.921C259.254 273.33 250.66 274.037 242.927 271.102C230.378 265.196 227.949 248.671 237.132 238.573C240.62 234.737 246.013 232.778 251.137 232.738C256.877 232.69 260.673 234.688 264.741 238.658C264.372 231.926 264.747 221.529 264.799 214.559ZM264.906 250.005C263.322 243.737 256.974 239.925 250.696 241.476C244.377 243.035 240.531 249.44 242.124 255.751C243.717 262.065 250.141 265.877 256.446 264.254C262.705 262.64 266.487 256.27 264.906 250.005Z" fill="url(#paint1_linear_42_3021)"/>
<path d="M300.288 232.998C329.902 229.94 334.297 268.734 306.508 272.6C300.179 273.25 293.999 272.414 288.769 268.52C284.752 265.499 282.106 261.006 281.416 256.029C279.539 243.178 288.069 234.691 300.288 232.998ZM308.104 242.071C305.388 240.838 303.499 240.88 300.651 241.201C286.26 244.802 289.958 267.904 305.818 264.657C307.063 264.236 308.397 263.811 309.489 263.082C316.594 258.342 316.103 245.706 308.104 242.071Z" fill="url(#paint2_linear_42_3021)"/>
<path d="M128.545 217.992C139.162 218.355 151.086 218.074 161.79 218.016L161.757 226.949C154.278 227.086 146.859 226.824 139.392 226.94L139.485 240.74L159.574 240.795L159.524 249.272C158.851 249.922 142.035 249.678 139.457 249.681L139.357 271.941L128.714 271.959C128.456 254.018 128.653 235.945 128.545 217.992Z" fill="url(#paint3_linear_42_3021)"/>
<path d="M108.964 233.464L119.339 233.513C119.417 237.801 119.394 242.165 119.411 246.459C119.467 254.94 119.444 263.421 119.342 271.901L109.855 271.889C109.603 270.232 109.487 268.584 109.342 266.915C109.106 267.162 108.868 267.409 108.627 267.653C102.61 273.772 91.6896 274.99 85.1103 268.74C80.3126 264.18 81.2425 255.391 81.2181 249.312C81.1976 244.136 81.2825 238.72 81.3194 233.449L91.8483 233.51L91.819 248.848C91.8147 252.16 91.7765 254.879 92.1354 258.315C92.577 264.995 101.915 266.39 105.956 262.145C110.025 257.866 108.822 249.932 108.985 244.417C109.093 240.792 108.973 237.059 108.964 233.464Z" fill="url(#paint4_linear_42_3021)"/>
<path d="M207.206 233C208.305 232.857 209.413 232.787 210.524 232.796C221.116 232.756 225.651 239.357 225.593 249.251C225.547 256.783 225.538 264.369 225.496 271.91L215.15 271.892C215.025 265.544 216.169 250.148 213.871 245.372C212.98 243.514 211.5 241.924 209.498 241.295C207.194 240.575 204.322 241.35 202.241 242.394C196.418 245.928 197.432 252.889 197.486 258.745L197.538 271.92L187.226 271.956C186.647 260.546 187.08 245.217 187.071 233.519L196.339 233.516C196.479 235.17 196.959 237.181 197.297 238.835C200.428 235.143 202.641 233.98 207.206 233Z" fill="url(#paint5_linear_42_3021)"/>
<path d="M21.644 218.987L31.9907 218.95L31.9925 233.385L43.5618 233.474C43.6088 235.973 43.6133 238.472 43.5755 240.972L32.0151 241.021C32.0206 246.682 31.8491 252.388 31.8717 258.043C31.879 259.825 32.5303 261.818 33.9457 263.002C36.7127 265.309 40.9144 264.519 44.2563 264.174L44.336 268.66L44.296 271.706C41.4109 272.222 39.1077 272.621 36.1744 272.585C20.7978 272.39 21.4417 263.216 21.5177 251.519L21.601 240.88L14.3973 240.898L14.3491 233.452L21.6764 233.449C21.5937 228.682 21.6489 223.769 21.644 218.987Z" fill="url(#paint6_linear_42_3021)"/>
<path d="M70.2279 233C72.8002 232.68 73.8961 232.781 76.4685 232.952L76.4947 242.082C66.1666 240.377 60.5404 245.326 60.6582 255.62C60.7196 260.979 60.7165 266.6 60.5963 271.95L50.9286 271.947L50.6387 271.767C49.7958 269.362 50.3213 238.204 50.3237 233.492C53.4454 233.452 56.6793 233.55 59.8089 233.602L60.766 239.705C63.6847 235.604 65.3729 234.282 70.2279 233Z" fill="url(#paint7_linear_42_3021)"/>
<path d="M167.799 233.428L178.227 233.477C178.352 245.912 178.401 259.508 178.102 271.91C174.751 271.993 171.168 271.895 167.802 271.862C167.558 259.328 167.753 245.986 167.799 233.428Z" fill="url(#paint8_linear_42_3021)"/>
<path d="M171.605 215.267C173.769 214.657 176.094 215.27 177.678 216.866C179.259 218.462 179.851 220.791 179.225 222.951C178.596 225.109 176.848 226.76 174.657 227.257C171.382 228.005 168.111 226.003 167.284 222.75C166.453 219.497 168.373 216.176 171.605 215.267Z" fill="url(#paint9_linear_42_3021)"/>
</g>
<defs>
<linearGradient id="paint0_linear_42_3021" x1="166.77" y1="12.6733" x2="166.77" y2="186.241" gradientUnits="userSpaceOnUse">
<stop stop-color="#023CA9"/>
<stop offset="1" stop-color="#011543"/>
</linearGradient>
<linearGradient id="paint1_linear_42_3021" x1="253.45" y1="214.559" x2="253.45" y2="272.76" gradientUnits="userSpaceOnUse">
<stop stop-color="#023CA9"/>
<stop offset="1" stop-color="#011543"/>
</linearGradient>
<linearGradient id="paint2_linear_42_3021" x1="303.132" y1="232.826" x2="303.132" y2="272.799" gradientUnits="userSpaceOnUse">
<stop stop-color="#023CA9"/>
<stop offset="1" stop-color="#011543"/>
</linearGradient>
<linearGradient id="paint3_linear_42_3021" x1="145.168" y1="217.992" x2="145.168" y2="271.959" gradientUnits="userSpaceOnUse">
<stop stop-color="#023CA9"/>
<stop offset="1" stop-color="#011543"/>
</linearGradient>
<linearGradient id="paint4_linear_42_3021" x1="100.301" y1="233.449" x2="100.301" y2="272.875" gradientUnits="userSpaceOnUse">
<stop stop-color="#023CA9"/>
<stop offset="1" stop-color="#011543"/>
</linearGradient>
<linearGradient id="paint5_linear_42_3021" x1="206.259" y1="232.795" x2="206.259" y2="271.956" gradientUnits="userSpaceOnUse">
<stop stop-color="#023CA9"/>
<stop offset="1" stop-color="#011543"/>
</linearGradient>
<linearGradient id="paint6_linear_42_3021" x1="29.3426" y1="218.95" x2="29.3426" y2="272.587" gradientUnits="userSpaceOnUse">
<stop stop-color="#023CA9"/>
<stop offset="1" stop-color="#011543"/>
</linearGradient>
<linearGradient id="paint7_linear_42_3021" x1="63.3272" y1="232.791" x2="63.3272" y2="271.95" gradientUnits="userSpaceOnUse">
<stop stop-color="#023CA9"/>
<stop offset="1" stop-color="#011543"/>
</linearGradient>
<linearGradient id="paint8_linear_42_3021" x1="173.003" y1="233.428" x2="173.003" y2="271.943" gradientUnits="userSpaceOnUse">
<stop stop-color="#023CA9"/>
<stop offset="1" stop-color="#011543"/>
</linearGradient>
<linearGradient id="paint9_linear_42_3021" x1="173.28" y1="215.035" x2="173.28" y2="227.414" gradientUnits="userSpaceOnUse">
<stop stop-color="#023CA9"/>
<stop offset="1" stop-color="#011543"/>
</linearGradient>
<clipPath id="clip0_42_3021">
<rect width="335" height="284" fill="white"/>
</clipPath>
</defs>
</svg>
